<svg width="100" height="100" viewBox="0 0 100 100" fill="none" xmlns="http://www.w3.org/2000/svg">
<g clip-path="url(#clip0_115_18)">
<rect width="100" height="100" fill="white"/>
<rect x="-129" y="-37" width="371" height="187.466" fill="#FF0000"/>
<rect x="20.1372" y="43.5881" width="21.8669" height="16.953" fill="#FFB800"/>
<path d="M25.1189 57.7649V51.2196H26.5607L27.6752 54.2888C27.8255 54.6957 27.9405 55.1202 28.082 55.5448H28.1174C28.2678 55.1202 28.3828 54.6957 28.5154 54.2888L29.6034 51.2196H31.054V57.7649H29.8599V55.0318C29.8599 54.4126 29.966 53.5016 30.0368 52.8824H29.9926L29.453 54.4215L28.4447 57.1811H27.6928L26.6845 54.4215L26.1538 52.8824H26.1184C26.1892 53.5016 26.2865 54.4126 26.2865 55.0318V57.7649H25.1189ZM35.322 57.8887C33.668 57.8887 32.3324 56.7035 32.3324 54.5188C32.3324 52.3606 33.7122 51.1046 35.3751 51.1046C36.2065 51.1046 36.8699 51.4938 37.2945 51.936L36.6046 52.7763C36.2684 52.449 35.897 52.2279 35.3928 52.2279C34.411 52.2279 33.668 53.077 33.668 54.4745C33.668 55.9074 34.3314 56.7566 35.3751 56.7566C35.9323 56.7566 36.3746 56.4912 36.7195 56.1109L37.4095 56.9335C36.8699 57.5615 36.1712 57.8887 35.322 57.8887Z" fill="black"/>
<path d="M43.7917 57.7649V51.2196H45.5873C47.5862 51.2196 48.8157 52.2544 48.8157 54.4657C48.8157 56.6681 47.5862 57.7649 45.658 57.7649H43.7917ZM45.1008 56.7123H45.4988C46.7283 56.7123 47.4801 56.0578 47.4801 54.4657C47.4801 52.8736 46.7283 52.2633 45.4988 52.2633H45.1008V56.7123ZM52.0695 57.8887C50.8223 57.8887 49.6902 56.9335 49.6902 55.2971C49.6902 53.652 50.8223 52.6967 52.0695 52.6967C53.3078 52.6967 54.44 53.652 54.44 55.2971C54.44 56.9335 53.3078 57.8887 52.0695 57.8887ZM52.0695 56.8362C52.7417 56.8362 53.1132 56.2259 53.1132 55.2971C53.1132 54.3596 52.7417 53.7581 52.0695 53.7581C51.3884 53.7581 51.0169 54.3596 51.0169 55.2971C51.0169 56.2259 51.3884 56.8362 52.0695 56.8362ZM55.5365 57.7649V52.8205H56.5891L56.6952 53.4751H56.7218C57.1463 53.0505 57.6593 52.6967 58.3316 52.6967C59.393 52.6967 59.8618 53.4397 59.8618 54.678V57.7649H58.5615V54.846C58.5615 54.0677 58.3404 53.8112 57.8628 53.8112C57.4559 53.8112 57.1994 54.0058 56.8368 54.3596V57.7649H55.5365ZM62.4147 57.8887C61.5301 57.8887 60.9552 57.2696 60.9552 56.4204C60.9552 55.3679 61.8132 54.8107 63.8033 54.5895C63.7768 54.103 63.5734 53.7404 62.963 53.7404C62.5031 53.7404 62.052 53.935 61.6009 54.2092L61.1321 53.3424C61.7159 52.9886 62.4147 52.6967 63.2019 52.6967C64.4579 52.6967 65.1035 53.4397 65.1035 54.8814V57.7649H64.0421L63.9448 57.243H63.9095C63.4761 57.6145 62.9807 57.8887 62.4147 57.8887ZM62.8392 56.8715C63.2107 56.8715 63.4849 56.7035 63.8033 56.3939V55.3944C62.5916 55.5448 62.1935 55.8721 62.1935 56.3232C62.1935 56.7035 62.4589 56.8715 62.8392 56.8715ZM67.6493 57.8887C66.7383 57.8887 66.4287 57.2961 66.4287 56.3762V50.7154H67.7289V56.4293C67.7289 56.7389 67.8616 56.8362 67.9854 56.8362C68.0297 56.8362 68.065 56.8362 68.1535 56.8185L68.3127 57.7826C68.1623 57.8357 67.9589 57.8887 67.6493 57.8887ZM70.9612 57.8887C69.7229 57.8887 68.9268 56.9246 68.9268 55.2971C68.9268 53.6785 69.944 52.6967 71.0054 52.6967C71.5626 52.6967 71.9076 52.9001 72.2702 53.2274L72.2172 52.449V50.7154H73.5174V57.7649H72.456L72.3587 57.2519H72.3321C71.9695 57.6145 71.4742 57.8887 70.9612 57.8887ZM71.2884 56.8185C71.6422 56.8185 71.9341 56.677 72.2172 56.3143V54.1384C71.9253 53.8642 71.6069 53.7581 71.2973 53.7581C70.74 53.7581 70.2624 54.2888 70.2624 55.2794C70.2624 56.3143 70.6427 56.8185 71.2884 56.8185ZM75.194 54.0234L74.8933 53.4485C75.477 53.1389 75.7601 52.7674 75.7601 52.166L75.6982 51.3611L76.1669 51.9891C76.0254 52.1129 75.8574 52.1925 75.6716 52.1925C75.2824 52.1925 74.964 51.936 74.964 51.5115C74.964 51.0604 75.2559 50.7773 75.6716 50.7773C76.2289 50.7773 76.5296 51.2196 76.5296 51.9714C76.5296 52.8736 76.0873 53.5635 75.194 54.0234ZM78.7361 57.8887C78.0727 57.8887 77.3386 57.6057 76.8521 57.1988L77.4359 56.3762C77.887 56.7212 78.3027 56.9246 78.7626 56.9246C79.2579 56.9246 79.4879 56.7035 79.4879 56.3939C79.4879 56.0313 78.9661 55.8544 78.453 55.6598C77.825 55.4121 77.1263 55.0406 77.1263 54.2003C77.1263 53.3247 77.8339 52.6967 78.9661 52.6967C79.6825 52.6967 80.2486 52.9886 80.6555 53.307L80.0628 54.0854C79.7179 53.8377 79.3641 53.6608 79.0014 53.6608C78.5503 53.6608 78.3469 53.8554 78.3469 54.1473C78.3469 54.5011 78.798 54.6426 79.3287 54.8283C79.9832 55.076 80.6997 55.4121 80.6997 56.3232C80.6997 57.1988 80.0186 57.8887 78.7361 57.8887Z" fill="black"/>
</g>
<defs>
<clipPath id="clip0_115_18">
<rect width="100" height="100" fill="white"/>
</clipPath>
</defs>
</svg>
