<svg xmlns="http://www.w3.org/2000/svg" width="64.84" height="64.857" viewBox="0 0 64.84 64.857">
  <g id="그룹_42947" data-name="그룹 42947" transform="translate(0 0)">
    <path id="패스_1190" data-name="패스 1190" d="M62.365,81.93H8.951a1.391,1.391,0,0,0-1.2,2.1A32.431,32.431,0,0,0,51.934,95.546,32.67,32.67,0,0,0,63.549,84.029a1.4,1.4,0,0,0,.011-1.4,1.38,1.38,0,0,0-1.2-.7" transform="translate(-3.238 -35.07)" fill="#5890c6"/>
    <path id="패스_1191" data-name="패스 1191" d="M62.295,19.794A32.43,32.43,0,0,0,2.173,44.1a1.387,1.387,0,0,0,1.292.886,1.42,1.42,0,0,0,.5-.092,1.378,1.378,0,0,0,.789-1.79,29.646,29.646,0,1,1,55.324,0,1.385,1.385,0,1,0,2.585,1,32.549,32.549,0,0,0-.372-24.311" transform="translate(0 0.01)" fill="#5890c6"/>
    <path id="패스_1192" data-name="패스 1192" d="M80.738,26.864a1.384,1.384,0,1,1-1.384-1.384,1.381,1.381,0,0,1,1.384,1.384" transform="translate(-33.381 -10.903)" fill="#e67f11"/>
    <path id="패스_1193" data-name="패스 1193" d="M55.76,34.294a2.859,2.859,0,0,0,2.854,2.859h2.213V35.866H58.614a1.57,1.57,0,0,1,0-3.14h2.213V31.44H58.614a2.854,2.854,0,0,0-2.854,2.854" transform="translate(-23.872 -13.454)" fill="#7d8387"/>
    <path id="패스_1194" data-name="패스 1194" d="M65.18,34.294a2.86,2.86,0,0,0,2.859,2.859h2.213V35.866H68.039a1.57,1.57,0,1,1,0-3.14h2.213V31.44H68.039a2.859,2.859,0,0,0-2.859,2.854" transform="translate(-27.905 -13.454)" fill="#7d8387"/>
    <path id="패스_1195" data-name="패스 1195" d="M88.478,26.864a1.384,1.384,0,1,1-1.384-1.384,1.381,1.381,0,0,1,1.384,1.384" transform="translate(-36.694 -10.903)" fill="#5890c6"/>
    <path id="패스_1196" data-name="패스 1196" d="M82.68,31.44a2.859,2.859,0,0,0-2.213,1.052,2.854,2.854,0,0,0-5.067,1.8v2.854h1.287V34.294a1.567,1.567,0,1,1,3.134,0v2.854h1.287V34.294a1.57,1.57,0,0,1,3.14,0v2.854h1.287V34.294A2.858,2.858,0,0,0,82.68,31.44" transform="translate(-32.28 -13.454)" fill="#7d8387"/>
    <path id="패스_1197" data-name="패스 1197" d="M27.131,90.49H26.5v1.149H24.58v.526h5.055v-.526h-2.5Z" transform="translate(-10.523 -38.735)" fill="#fff"/>
    <path id="패스_1198" data-name="패스 1198" d="M28.848,89.022v.3a5.577,5.577,0,0,1-.263,1.161H29.2a2.87,2.87,0,0,0,.286-1.19v-.5a.336.336,0,0,0-.343-.337H25.76v.515h3.031c.04,0,.057.017.057.057" transform="translate(-11.028 -37.861)" fill="#fff"/>
    <path id="패스_1199" data-name="패스 1199" d="M27.593,93.91c-1.041,0-1.893.355-1.893,1.132s.852,1.127,1.893,1.127,1.893-.349,1.893-1.127-.846-1.132-1.893-1.132m0,1.739c-.732,0-1.224-.194-1.224-.606s.492-.612,1.224-.612,1.224.206,1.224.612-.486.606-1.224.606" transform="translate(-11.003 -40.199)" fill="#fff"/>
    <path id="패스_1200" data-name="패스 1200" d="M37.793,93.92c-.681,0-1.813.206-1.813,1.144S37,96.19,37.793,96.19s1.807-.177,1.807-1.127-1.018-1.144-1.807-1.144m.006,1.75c-.566,0-1.2-.114-1.2-.606s.629-.623,1.2-.623,1.184.132,1.184.623-.629.606-1.184.606" transform="translate(-15.404 -40.203)" fill="#fff"/>
    <path id="패스_1201" data-name="패스 1201" d="M35.969,90.493a3.418,3.418,0,0,0,1.241.892l.4-.423c-.515-.223-1.327-.686-1.327-1.275v-.532h1.064V88.64H34.579v.515h1.047v.532c0,.492-.589,1.081-1.4,1.418l.4.412a3.73,3.73,0,0,0,1.344-1.029" transform="translate(-14.655 -37.943)" fill="#fff"/>
    <path id="패스_1202" data-name="패스 1202" d="M39.16,90.024h1.172v1.447h.629V88.36h-.629v1.127H39.16Z" transform="translate(-16.765 -37.823)" fill="#fff"/>
    <path id="패스_1203" data-name="패스 1203" d="M47.5,90.05H46.378V88.963a.334.334,0,0,0-.332-.343h-2.3v.538h1.927c.04,0,.063.017.063.057v1.453c-.006,1-1.292,1.55-2.127,1.75l.332.458c1.1-.252,2.442-.961,2.442-2.293H47.51v3.105h.635V88.34H47.51v1.7Z" transform="translate(-18.67 -37.814)" fill="#fff"/>
    <path id="패스_1204" data-name="패스 1204" d="M58.867,90.14h-.612V88.35H57.62v5.221h.635V90.678h.612V93.7H59.5V88.35h-.635Z" transform="translate(-24.668 -37.819)" fill="#fff"/>
    <path id="패스_1205" data-name="패스 1205" d="M53.572,92.113c-.04,0-.057-.017-.057-.057v-1.19h1.493V88.75H52.88v.509h1.487v1.047c0,.04-.017.063-.057.063H52.88V92.3a.332.332,0,0,0,.343.337,12.64,12.64,0,0,0,2.1-.149v-.509a10.053,10.053,0,0,1-1.756.132" transform="translate(-22.639 -37.99)" fill="#fff"/>
    <path id="패스_1206" data-name="패스 1206" d="M63.955,90.9c.852,0,1.487-.48,1.487-1.207s-.595-1.241-1.487-1.241-1.515.52-1.515,1.241.566,1.207,1.515,1.207m0-1.944c.578,0,.875.315.875.738,0,.366-.315.7-.875.7s-.886-.309-.886-.7a.8.8,0,0,1,.886-.738" transform="translate(-26.732 -37.861)" fill="#fff"/>
    <path id="패스_1207" data-name="패스 1207" d="M68.82,93.706h.641V88.37H68.82Z" transform="translate(-29.463 -37.827)" fill="#fff"/>
    <path id="패스_1208" data-name="패스 1208" d="M62.09,93.337v.543h1.327v1.847h.641V93.881a5.468,5.468,0,0,0,1.578-.183l.08-.029V93.16a8.714,8.714,0,0,1-1.836.172H62.1Z" transform="translate(-26.582 -39.878)" fill="#fff"/>
    <path id="패스_1209" data-name="패스 1209" d="M73.054,90.374c.7,0,1.424-.315,1.424-1.012s-.726-1.012-1.424-1.012-1.424.32-1.424,1.012.726,1.012,1.424,1.012m0-1.527c.423,0,.806.137.806.515s-.389.515-.806.515c-.4,0-.806-.154-.806-.515s.406-.515.806-.515" transform="translate(-30.666 -37.819)" fill="#fff"/>
    <path id="패스_1210" data-name="패스 1210" d="M75.22,92.054h1.556v.515h.641V88.36h-.641v3.163H75.22Z" transform="translate(-32.203 -37.823)" fill="#fff"/>
    <path id="패스_1211" data-name="패스 1211" d="M73.271,96.039V95.21H72.63V96.3a.34.34,0,0,0,.343.343h3.408V96.1h-3.06s-.051-.017-.051-.057" transform="translate(-31.094 -40.756)" fill="#fff"/>
    <path id="패스_1212" data-name="패스 1212" d="M72.3,93.593h.652v-.875a6.3,6.3,0,0,0,1.8-.177l.08-.034V91.98a9.522,9.522,0,0,1-1.95.189H71.23v.549H72.3Z" transform="translate(-30.495 -39.373)" fill="#fff"/>
    <path id="패스_1213" data-name="패스 1213" d="M83.828,88.825H82.473V88.23h-.646v.595H80.5v.543h3.328Z" transform="translate(-34.464 -37.767)" fill="#fff"/>
    <path id="패스_1214" data-name="패스 1214" d="M82.446,92.665a1.192,1.192,0,0,0,1.1-1.1,1.47,1.47,0,0,0-2.859,0,1.18,1.18,0,0,0,1.127,1.1v.566H80.37v.526h1.59a7.079,7.079,0,0,0,2.019-.183l.08-.034v-.5a8.071,8.071,0,0,1-1.613.183v-.572Zm-1.1-1.1c0-.36.337-.6.772-.6s.772.246.772.6-.326.6-.772.6-.772-.24-.772-.6" transform="translate(-34.408 -38.713)" fill="#fff"/>
    <path id="패스_1215" data-name="패스 1215" d="M87.23,88.35V93.7h.641V88.35Z" transform="translate(-37.345 -37.819)" fill="#fff"/>
    <path id="패스_1216" data-name="패스 1216" d="M16.125,51.454A8.715,8.715,0,0,0,20.1,54.4l.841-1.029c-1.4-.463-4.146-2.11-4.146-3.82V47.88H15.462v1.67c0,1.761-2.779,3.357-4.192,3.82l.875,1.041a9.536,9.536,0,0,0,3.986-2.957" transform="translate(-4.825 -20.493)" fill="#7d8387"/>
    <path id="패스_1217" data-name="패스 1217" d="M16.468,58.13H15.124v3.06h-4.6v1.235H21.037V61.19H16.468Z" transform="translate(-4.504 -24.881)" fill="#7d8387"/>
    <path id="패스_1218" data-name="패스 1218" d="M61.982,46.96H60.65V59.2h1.332V52.576h1.5V51.358h-1.5Z" transform="translate(-25.965 -20.099)" fill="#7d8387"/>
    <path id="패스_1219" data-name="패스 1219" d="M50.8,51.74V49.258h2.442V48.04H47.079v1.218h2.373v2.43c0,1.235-1.544,3.351-3,4.346l.944.938a12.471,12.471,0,0,0,2.768-3.162,12.21,12.21,0,0,0,2.654,2.945l.886-.949c-1.321-.9-2.911-2.762-2.911-4.06" transform="translate(-19.886 -20.561)" fill="#7d8387"/>
    <path id="패스_1220" data-name="패스 1220" d="M67.88,50.99l.743,1a7.712,7.712,0,0,0,3.74-2.328,8.082,8.082,0,0,0,3.763,2.328l.726-1c-2-.578-3.168-1.424-3.62-2.339l-.057-.126h3V47.37H68.572v1.155H71.6l-.057.114c-.526.978-1.613,1.75-3.654,2.35" transform="translate(-29.061 -20.274)" fill="#7d8387"/>
    <path id="패스_1221" data-name="패스 1221" d="M66.45,57.688h4.627v1.081c-2.139.143-3.294.989-3.294,2.362,0,1.544,1.413,2.379,3.952,2.379s3.935-.886,3.935-2.379c0-1.39-1.144-2.225-3.283-2.362V57.688h4.592V56.47H66.45v1.218Zm7.886,3.443c0,.709-.783,1.184-2.6,1.184s-2.608-.463-2.608-1.184c0-.681.795-1.224,2.608-1.224s2.6.538,2.6,1.224" transform="translate(-28.449 -24.17)" fill="#7d8387"/>
    <path id="패스_1222" data-name="패스 1222" d="M42.75,59.19H44.1V46.94H42.75Z" transform="translate(-18.302 -20.09)" fill="#7d8387"/>
    <path id="패스_1223" data-name="패스 1223" d="M34.4,51.114H31.391V47.9H30.07v8.132a.729.729,0,0,0,.715.772h4.952V47.9H34.4Zm0,4.346v.126h-2.9c-.08,0-.12-.04-.12-.126V52.349H34.4V55.46Z" transform="translate(-12.874 -20.501)" fill="#7d8387"/>
    <path id="패스_1224" data-name="패스 1224" d="M99.85,53.937h1.31V46.96H99.85Z" transform="translate(-42.748 -20.099)" fill="#7d8387"/>
    <path id="패스_1225" data-name="패스 1225" d="M89.017,51.45a6.984,6.984,0,0,0,2.911,2.122l.749-.961c-1.344-.658-3.037-1.721-3.037-3.042v-2.3H88.274V49.6c0,1.475-1.458,2.762-2.894,3.523l.875.926a8.7,8.7,0,0,0,2.768-2.585" transform="translate(-36.553 -20.232)" fill="#7d8387"/>
    <path id="패스_1226" data-name="패스 1226" d="M88.74,64.233a.723.723,0,0,0,.715.772h6.857V60.43H88.74Zm1.287-2.625h5v2.213H90.141c-.08,0-.114-.04-.114-.132Z" transform="translate(-37.991 -25.866)" fill="#7d8387"/>
  </g>
</svg>
