<svg id="icon-gnb-account-01" xmlns="http://www.w3.org/2000/svg" width="20" height="20" viewBox="0 0 20 20">
  <rect id="사각형_23310" data-name="사각형 23310" width="20" height="20" fill="none"/>
  <g id="그룹_47058" data-name="그룹 47058">
    <path id="패스_81136" data-name="패스 81136" d="M10,2.328A2.648,2.648,0,1,1,7.352,4.976,2.649,2.649,0,0,1,10,2.328m0-1.8a4.444,4.444,0,1,0,4.443,4.445v0A4.443,4.443,0,0,0,10,.533" fill="#192547"/>
    <path id="패스_81137" data-name="패스 81137" d="M11.641,12.328a5.419,5.419,0,0,1,5.412,5.281H2.946a5.421,5.421,0,0,1,5.413-5.281Zm0-1.858H8.359a7.272,7.272,0,0,0-7.272,7.272,1.726,1.726,0,0,0,1.727,1.725H17.187a1.726,1.726,0,0,0,1.726-1.725,7.272,7.272,0,0,0-7.272-7.272" fill="#192547"/>
  </g>
</svg>
