<svg xmlns="http://www.w3.org/2000/svg" width="20" height="20" viewBox="0 0 20 20">
  <g id="icon-gnb-search-01" transform="translate(-78 -2.699)">
    <rect id="사각형_17323" data-name="사각형 17323" width="20" height="20" transform="translate(78 2.699)" fill="none"/>
    <g id="Icon_search" data-name="Icon search" transform="translate(74.995 4.195)">
      <path id="패스_81143" data-name="패스 81143" d="M-12582.69,21290.219l-4.44-4.434-.042-.045a7.916,7.916,0,0,1-4.868,1.668,7.96,7.96,0,0,1-7.956-7.949,7.966,7.966,0,0,1,7.956-7.957,7.965,7.965,0,0,1,7.95,7.957,7.912,7.912,0,0,1-1.669,4.867.618.618,0,0,1,.045.043l4.435,4.434a1,1,0,0,1,0,1.416,1,1,0,0,1-.705.295A1,1,0,0,1-12582.69,21290.219Zm-15.3-10.76a5.958,5.958,0,0,0,5.953,5.951,5.961,5.961,0,0,0,5.952-5.951,5.958,5.958,0,0,0-5.952-5.953A5.955,5.955,0,0,0-12597.994,21279.459Z" transform="translate(12603.496 -21272.504)" fill="#192547"/>
    </g>
  </g>
</svg>
