<svg width="42" height="71" viewBox="0 0 42 71" fill="none" xmlns="http://www.w3.org/2000/svg">
<path d="M19.512 59V69.248H18.384V64.256H16.716V69.068H15.588V59.06H16.716V63.128H18.384V59H19.512ZM12.18 59.24C12.964 59.24 13.556 59.628 13.956 60.404C14.356 61.172 14.556 62.372 14.556 64.004C14.556 65.636 14.356 66.84 13.956 67.616C13.556 68.384 12.964 68.768 12.18 68.768C11.388 68.768 10.792 68.384 10.392 67.616C9.992 66.84 9.792 65.636 9.792 64.004C9.792 62.372 9.992 61.172 10.392 60.404C10.792 59.628 11.388 59.24 12.18 59.24ZM12.18 67.688C12.604 67.688 12.916 67.388 13.116 66.788C13.324 66.188 13.428 65.26 13.428 64.004C13.428 62.748 13.324 61.82 13.116 61.22C12.916 60.62 12.604 60.32 12.18 60.32C11.756 60.32 11.44 60.62 11.232 61.22C11.024 61.82 10.92 62.748 10.92 64.004C10.92 65.26 11.024 66.188 11.232 66.788C11.44 67.388 11.756 67.688 12.18 67.688ZM30.839 62.612H21.791V61.712H23.603V60.02H21.899V59.12H30.731V60.02H29.027V61.712H30.839V62.612ZM24.791 61.712H27.839V60.02H24.791V61.712ZM31.439 63.464V64.388H21.203V63.464H31.439ZM23.075 68.252H30.911V69.128H21.911V66.752H29.567V66.092H21.887V65.216H30.731V67.58H23.075V68.252Z" fill="#192547"/>
<path d="M0 21C0 32.5979 9.40201 42 21 42C32.5979 42 42 32.5979 42 21C42 9.40201 32.5979 0 21 0C9.40201 0 0 9.40201 0 21Z" fill="black"/>
<path d="M21.2124 13.7307C22.0066 13.7307 23.0022 13.1773 23.5951 12.4394C24.132 11.7707 24.5235 10.8367 24.5235 9.90283C24.5235 9.77599 24.5123 9.64917 24.4899 9.54541C23.6062 9.58 22.5436 10.1565 21.906 10.929C21.4027 11.517 20.944 12.4394 20.944 13.3848C20.944 13.5232 20.9664 13.6615 20.9775 13.7077C21.0335 13.7192 21.1229 13.7307 21.2124 13.7307ZM18.4159 27.6817C19.501 27.6817 19.982 26.9322 21.3355 26.9322C22.7114 26.9322 23.0134 27.6586 24.2215 27.6586C25.4072 27.6586 26.2014 26.5288 26.9509 25.4219C27.7898 24.1537 28.1365 22.9084 28.159 22.8509C28.0807 22.8278 25.8099 21.8708 25.8099 19.1843C25.8099 16.8553 27.5998 15.8061 27.7004 15.7254C26.5147 13.9728 24.7137 13.9267 24.2215 13.9267C22.8903 13.9267 21.8052 14.7569 21.1229 14.7569C20.3847 14.7569 19.4115 13.9728 18.2593 13.9728C16.0668 13.9728 13.8408 15.8407 13.8408 19.3688C13.8408 21.5594 14.6686 23.8769 15.6865 25.3757C16.559 26.6441 17.3197 27.6817 18.4159 27.6817Z" fill="white"/>
</svg>
