<svg id="icon-gnb-notification-01" xmlns="http://www.w3.org/2000/svg" width="20" height="20.004" viewBox="0 0 20 20.004">
  <rect id="사각형_23311" data-name="사각형 23311" width="20" height="20.004" fill="none"/>
  <g id="그룹_47059" data-name="그룹 47059">
    <path id="패스_81139" data-name="패스 81139" d="M7.769,18.1a2.26,2.26,0,0,0,4.463,0Z" fill="#192547"/>
    <path id="패스_81142" data-name="패스 81142" d="M-12641.2,21290.1a1.8,1.8,0,0,1-1.576-2.666l.6-1.084a6.719,6.719,0,0,0,.823-3.223v-2.2a6.56,6.56,0,0,1,5.467-6.467,1.5,1.5,0,0,1,1.5-1.469,1.5,1.5,0,0,1,1.5,1.469,6.56,6.56,0,0,1,5.467,6.467v2.2a6.729,6.729,0,0,0,.822,3.223l.6,1.084a1.8,1.8,0,0,1-1.576,2.666Zm1.849-9.168v2.2a8.733,8.733,0,0,1-1.074,4.184l-.433.791h12.936l-.433-.791a8.727,8.727,0,0,1-1.068-4.184v-2.2a4.566,4.566,0,0,0-4.559-4.559h-.817A4.561,4.561,0,0,0-12639.353,21280.936Z" transform="translate(12644.391 -21273)" fill="#192547"/>
  </g>
</svg>
