<svg width="42" height="71" viewBox="0 0 42 71" fill="none" xmlns="http://www.w3.org/2000/svg">
<g clip-path="url(#clip0_173_3)">
<path d="M21 42C32.598 42 42 32.598 42 21C42 9.40202 32.598 0 21 0C9.40202 0 0 9.40202 0 21C0 32.598 9.40202 42 21 42Z" fill="#FFE500"/>
<path fill-rule="evenodd" clip-rule="evenodd" d="M11 19.775C11 22.538 12.897 24.957 15.746 26.341L14.782 29.804C14.746 29.909 14.775 30.024 14.855 30.099C14.911 30.153 14.983 30.182 15.064 30.182C15.125 30.182 15.186 30.157 15.241 30.116L19.386 27.422C19.986 27.505 20.601 27.552 21.226 27.552C26.874 27.552 31.455 24.071 31.455 19.775C31.455 15.48 26.874 12 21.227 12C15.579 12 11 15.48 11 19.775Z" fill="#391F1F"/>
</g>
<path d="M15.376 64.292H13.936V69.248H12.748V59H13.936V63.152H15.376V64.292ZM5.032 59.372H10.708V62.24C10.708 63.552 10.468 64.688 9.988 65.648C9.508 66.6 8.84 67.332 7.984 67.844C7.128 68.348 6.144 68.604 5.032 68.612V67.496C6.128 67.488 7.048 67.204 7.792 66.644C8.536 66.076 9.04 65.252 9.304 64.172H5.032V63.092H9.484C9.508 62.836 9.52 62.576 9.52 62.312V60.452H5.032V59.372ZM26.919 64.292H25.479V69.248H24.291V59H25.479V63.152H26.919V64.292ZM16.575 59.372H22.251V62.24C22.251 63.552 22.011 64.688 21.531 65.648C21.051 66.6 20.383 67.332 19.527 67.844C18.671 68.348 17.687 68.604 16.575 68.612V67.496C17.671 67.488 18.591 67.204 19.335 66.644C20.079 66.076 20.583 65.252 20.847 64.172H16.575V63.092H21.027C21.051 62.836 21.063 62.576 21.063 62.312V60.452H16.575V59.372ZM37.9819 67.64V68.756H27.7459V67.64H32.2459V65.456C31.4379 65.4 30.7299 65.236 30.1219 64.964C29.5219 64.692 29.0579 64.332 28.7299 63.884C28.4019 63.428 28.2379 62.912 28.2379 62.336C28.2379 61.712 28.4299 61.164 28.8139 60.692C29.1979 60.212 29.7379 59.84 30.4339 59.576C31.1299 59.312 31.9379 59.18 32.8579 59.18C33.7779 59.18 34.5859 59.312 35.2819 59.576C35.9779 59.84 36.5179 60.212 36.9019 60.692C37.2859 61.164 37.4779 61.712 37.4779 62.336C37.4779 62.912 37.3139 63.428 36.9859 63.884C36.6579 64.332 36.1899 64.692 35.5819 64.964C34.9739 65.236 34.2659 65.4 33.4579 65.456V67.64H37.9819ZM29.4979 62.336C29.4979 62.744 29.6379 63.104 29.9179 63.416C30.1979 63.728 30.5899 63.972 31.0939 64.148C31.6059 64.316 32.1939 64.4 32.8579 64.4C33.5299 64.4 34.1179 64.316 34.6219 64.148C35.1339 63.972 35.5299 63.728 35.8099 63.416C36.0899 63.104 36.2299 62.744 36.2299 62.336C36.2299 61.928 36.0899 61.568 35.8099 61.256C35.5299 60.936 35.1339 60.692 34.6219 60.524C34.1179 60.348 33.5299 60.26 32.8579 60.26C32.1939 60.26 31.6059 60.348 31.0939 60.524C30.5899 60.692 30.1979 60.936 29.9179 61.256C29.6379 61.568 29.4979 61.928 29.4979 62.336Z" fill="#192547"/>
<defs>
<clipPath id="clip0_173_3">
<rect width="42" height="42" fill="white"/>
</clipPath>
</defs>
</svg>
