<svg width="42" height="71" viewBox="0 0 42 71" fill="none" xmlns="http://www.w3.org/2000/svg">
<g clip-path="url(#clip0_173_2)">
<path d="M21 42C32.598 42 42 32.598 42 21C42 9.40202 32.598 0 21 0C9.40202 0 0 9.40202 0 21C0 32.598 9.40202 42 21 42Z" fill="#2DB400"/>
<path fill-rule="evenodd" clip-rule="evenodd" d="M13 14H18.507C18.507 14 23.505 21.31 23.657 21.507C23.807 21.704 23.824 21.507 23.824 21.507C23.591 20.377 23.342 19.867 23.342 18.06V14H28.828V27.542H23.342C23.342 27.542 18.445 20.621 18.296 20.43C18.15 20.239 18.128 20.43 18.128 20.43C18.318 21.365 18.484 21.52 18.484 23.142V27.542H13V14Z" fill="white"/>
</g>
<path d="M14.512 59V69.248H13.384V59H14.512ZM10.912 59.06H12.028V69.068H10.912V63.872H8.212V62.768H10.912V59.06ZM7.576 67.58C8.016 67.58 8.444 67.548 8.86 67.484C9.284 67.412 9.652 67.312 9.964 67.184V68.228C9.668 68.364 9.292 68.464 8.836 68.528C8.388 68.6 7.924 68.636 7.444 68.636H4.972V59.348H6.136V67.58H7.576ZM24.579 59H25.779V69.248H24.579V59ZM19.743 68.768C19.119 68.768 18.575 68.592 18.111 68.24C17.647 67.896 17.283 67.368 17.019 66.656C16.763 65.944 16.635 65.06 16.635 64.004C16.635 62.948 16.763 62.064 17.019 61.352C17.283 60.64 17.647 60.112 18.111 59.768C18.575 59.416 19.119 59.24 19.743 59.24C20.359 59.24 20.899 59.416 21.363 59.768C21.827 60.112 22.187 60.64 22.443 61.352C22.707 62.064 22.839 62.948 22.839 64.004C22.839 65.06 22.707 65.944 22.443 66.656C22.187 67.368 21.827 67.896 21.363 68.24C20.899 68.592 20.359 68.768 19.743 68.768ZM19.743 67.676C20.311 67.676 20.771 67.376 21.123 66.776C21.475 66.168 21.651 65.244 21.651 64.004C21.651 62.772 21.475 61.852 21.123 61.244C20.771 60.636 20.311 60.332 19.743 60.332C19.167 60.332 18.703 60.636 18.351 61.244C17.999 61.844 17.823 62.764 17.823 64.004C17.823 65.244 17.995 66.168 18.339 66.776C18.691 67.376 19.159 67.676 19.743 67.676ZM37.3939 59V69.248H36.1939V64.316H33.9739V68.636H28.2739V59.3H29.4499V62.828H32.7979V59.3H33.9739V63.2H36.1939V59H37.3939ZM32.7979 67.544V63.92H29.4499V67.544H32.7979Z" fill="#192547"/>
<defs>
<clipPath id="clip0_173_2">
<rect width="42" height="42" fill="white"/>
</clipPath>
</defs>
</svg>
