<svg width="36" height="29" viewBox="0 0 36 29" fill="none" xmlns="http://www.w3.org/2000/svg">
<path d="M21.6 4.14286V18.6429H3.6V4.14286H21.6ZM3.6 0C1.61438 0 0 1.85781 0 4.14286V18.6429C0 20.9279 1.61438 22.7857 3.6 22.7857H10.1981L9.59625 24.8571H5.4C4.40438 24.8571 3.6 25.7828 3.6 26.9286C3.6 28.0743 4.40438 29 5.4 29H19.8C20.7956 29 21.6 28.0743 21.6 26.9286C21.6 25.7828 20.7956 24.8571 19.8 24.8571H15.5981L14.9963 22.7857H21.6C23.5856 22.7857 25.2 20.9279 25.2 18.6429V4.14286C25.2 1.85781 23.5856 0 21.6 0H3.6ZM29.7 0C28.2094 0 27 1.39174 27 3.10714V25.8929C27 27.6083 28.2094 29 29.7 29H33.3C34.7906 29 36 27.6083 36 25.8929V3.10714C36 1.39174 34.7906 0 33.3 0H29.7ZM30.6 4.14286H32.4C32.895 4.14286 33.3 4.60893 33.3 5.17857C33.3 5.74821 32.895 6.21429 32.4 6.21429H30.6C30.105 6.21429 29.7 5.74821 29.7 5.17857C29.7 4.60893 30.105 4.14286 30.6 4.14286ZM29.7 9.32143C29.7 8.75179 30.105 8.28571 30.6 8.28571H32.4C32.895 8.28571 33.3 8.75179 33.3 9.32143C33.3 9.89107 32.895 10.3571 32.4 10.3571H30.6C30.105 10.3571 29.7 9.89107 29.7 9.32143ZM31.5 19.6786C31.9774 19.6786 32.4352 19.8968 32.7728 20.2853C33.1104 20.6737 33.3 21.2006 33.3 21.75C33.3 22.2994 33.1104 22.8263 32.7728 23.2147C32.4352 23.6032 31.9774 23.8214 31.5 23.8214C31.0226 23.8214 30.5648 23.6032 30.2272 23.2147C29.8896 22.8263 29.7 22.2994 29.7 21.75C29.7 21.2006 29.8896 20.6737 30.2272 20.2853C30.5648 19.8968 31.0226 19.6786 31.5 19.6786Z" fill="black"/>
</svg>
