<svg width="79" height="62" viewBox="0 0 79 62" fill="none" xmlns="http://www.w3.org/2000/svg">
<path d="M67.1676 9.00937C59.779 3.19687 49.9393 0 39.4824 0C17.8984 0 0.335045 13.7839 0.335045 30.7232C0.335045 36.1344 2.13371 41.421 5.55469 46.0848L0 62L20.7551 57.7237C26.4685 60.1732 32.9049 61.4603 39.4647 61.4603H39.4824C61.0487 61.4603 79 47.6763 79 30.7371C79 22.5304 74.5562 14.8219 67.1676 9.00937ZM39.4824 56.2844C33.6279 56.2844 27.8969 55.0527 22.9065 52.7277L21.725 52.1741L9.41652 54.7067L12.6964 45.2821L11.9205 44.3134C8.65826 40.2446 6.94777 35.5531 6.94777 30.7232C6.94777 16.6487 21.5487 5.18973 39.5 5.18973C48.1935 5.18973 56.358 7.84687 62.4946 12.6768C68.6312 17.5067 72.4049 23.9143 72.3873 30.7371C72.3873 44.8254 57.4161 56.2844 39.4824 56.2844ZM57.3279 37.1585C56.358 36.771 51.544 34.9165 50.6446 34.6674C49.7453 34.4045 49.0929 34.2799 48.4404 35.0549C47.7879 35.8299 45.9188 37.546 45.3368 38.0719C44.7725 38.5839 44.1906 38.6531 43.2208 38.2656C37.4721 36.0098 33.6984 34.2384 29.9071 29.1317C28.902 27.7754 30.9123 27.8723 32.7815 24.9384C33.0989 24.4263 32.9402 23.9835 32.6933 23.596C32.4464 23.2085 30.4891 19.4304 29.6779 17.8942C28.8844 16.3996 28.0732 16.6071 27.4737 16.5795C26.9094 16.5518 26.2569 16.5518 25.6045 16.5518C24.952 16.5518 23.894 16.7455 22.9946 17.5067C22.0953 18.2817 19.5737 20.1362 19.5737 23.9143C19.5737 27.6924 23.0828 31.346 23.5589 31.858C24.0527 32.3701 30.4538 40.1201 40.2759 43.4554C46.483 45.5589 48.9165 45.7388 52.0201 45.379C53.9069 45.1576 57.804 43.5246 58.6152 41.7254C59.4263 39.9263 59.4263 38.3902 59.1795 38.0719C58.9502 37.7259 58.2978 37.5321 57.3279 37.1585Z" fill="black"/>
</svg>
