<svg width="79" height="62" viewBox="0 0 79 62" fill="none" xmlns="http://www.w3.org/2000/svg">
<path d="M47.4 8.85714V39.8571H7.9V8.85714H47.4ZM7.9 0C3.54266 0 0 3.97188 0 8.85714V39.8571C0 44.7424 3.54266 48.7143 7.9 48.7143H22.3792L21.0584 53.1429H11.85C9.66516 53.1429 7.9 55.1219 7.9 57.5714C7.9 60.021 9.66516 62 11.85 62H43.45C45.6348 62 47.4 60.021 47.4 57.5714C47.4 55.1219 45.6348 53.1429 43.45 53.1429H34.2292L32.9084 48.7143H47.4C51.7573 48.7143 55.3 44.7424 55.3 39.8571V8.85714C55.3 3.97188 51.7573 0 47.4 0H7.9ZM65.175 0C61.9039 0 59.25 2.97545 59.25 6.64286V55.3571C59.25 59.0246 61.9039 62 65.175 62H73.075C76.3461 62 79 59.0246 79 55.3571V6.64286C79 2.97545 76.3461 0 73.075 0H65.175ZM67.15 8.85714H71.1C72.1862 8.85714 73.075 9.85357 73.075 11.0714C73.075 12.2893 72.1862 13.2857 71.1 13.2857H67.15C66.0638 13.2857 65.175 12.2893 65.175 11.0714C65.175 9.85357 66.0638 8.85714 67.15 8.85714ZM65.175 19.9286C65.175 18.7107 66.0638 17.7143 67.15 17.7143H71.1C72.1862 17.7143 73.075 18.7107 73.075 19.9286C73.075 21.1464 72.1862 22.1429 71.1 22.1429H67.15C66.0638 22.1429 65.175 21.1464 65.175 19.9286ZM69.125 42.0714C70.1726 42.0714 71.1773 42.538 71.9181 43.3685C72.6588 44.199 73.075 45.3255 73.075 46.5C73.075 47.6745 72.6588 48.801 71.9181 49.6315C71.1773 50.462 70.1726 50.9286 69.125 50.9286C68.0774 50.9286 67.0727 50.462 66.3319 49.6315C65.5912 48.801 65.175 47.6745 65.175 46.5C65.175 45.3255 65.5912 44.199 66.3319 43.3685C67.0727 42.538 68.0774 42.0714 69.125 42.0714Z" fill="black"/>
</svg>
