<svg width="56" height="32" viewBox="0 0 56 32" fill="none" xmlns="http://www.w3.org/2000/svg">
<rect width="56" height="32" fill="black"/>
<path fill-rule="evenodd" clip-rule="evenodd" d="M24 2V3L21 5V14.5V16H34L34 3L32 2H45.8125C47.2083 2.33333 50.4 4.4 52 10V23C51.8333 24.8333 50.4 28.8 46 30L31.5 30H31V29L34 27L34 18H21V29L23 30H9.5C8.10417 29.6667 4.6 27.6 3 22V9C3.16667 7.16667 4.6 3.2 9 2H23.5H24ZM15 5.5V27.5L14 29H10.5C9.33333 28.3333 6.8 25.8 6 21V12C6.33333 10.5 7.7 6.8 10.5 4H14.5L15 5.5ZM40 26.5L40 4.5L41 3L44.5 3C45.6667 3.66667 48.2 6.2 49 11V20C48.6667 21.5 47.3 25.2 44.5 28L40.5 28L40 26.5Z" fill="white"/>
</svg>
